<?xml version="1.0" encoding="UTF-8"?> <svg xmlns="http://www.w3.org/2000/svg" id="Capa_1" data-name="Capa 1" width="82.05mm" height="49.73mm" viewBox="0 0 232.6 140.95"><defs><style>.cls-1{fill:#00a7e1;}.cls-2{fill:#002b49;}</style></defs><path class="cls-1" d="M35.66,139.64l21-39.76h10l4,39.76H61.89l-.49-10H49.57l-4.7,10ZM55,118.11l-2.44,5.25h8.53l-.24-5.25q-.12-2.92-.24-5.79c-.08-1.91-.17-3.93-.25-6h-.24c-.86,2.07-1.69,4.07-2.5,6S55.93,116.12,55,118.11Z"></path><path class="cls-1" d="M79.7,140.38c-2.2,0-3.76-.53-4.7-1.59a6.33,6.33,0,0,1-1.4-4.33,18.88,18.88,0,0,1,.43-3.72L80.8,96.89h8.35L82.26,131.1a3.41,3.41,0,0,0-.12.71v.45a1.46,1.46,0,0,0,.33,1.1,1.17,1.17,0,0,0,.83.31h.48a2.21,2.21,0,0,0,.61-.13l-.24,6.16a9.24,9.24,0,0,1-1.89.49A15.94,15.94,0,0,1,79.7,140.38Z"></path><path class="cls-1" d="M168.22,140.38c-3.05,0-5.25-.76-6.59-2.26a8.3,8.3,0,0,1-2-5.73,12.36,12.36,0,0,1,.15-1.93q.15-.94.33-1.92l2.63-12.62,1.3-6.5,1.64-8H174l-1.52,7.93h6.89L178,115.92H171l-2.62,13a4.89,4.89,0,0,0-.12,1v1q0,2.93,3.11,2.93a4.55,4.55,0,0,0,1.28-.18,9.42,9.42,0,0,0,1.22-.49l1.46,5.85a22.06,22.06,0,0,1-3,.92A17.74,17.74,0,0,1,168.22,140.38Z"></path><path class="cls-1" d="M108.42,127.45a19,19,0,0,1,1.5-7.66,19.66,19.66,0,0,1,3.9-5.92,18.28,18.28,0,0,1,5.4-3.84,14.43,14.43,0,0,1,6-1.37,10.71,10.71,0,0,1,4.57.88,8.2,8.2,0,0,1,3.08,2.44,9.68,9.68,0,0,1,1.71,3.6,17.74,17.74,0,0,1,.52,4.42,13,13,0,0,1-.18,2.17c-.12.71-.27,1.38-.43,2a13,13,0,0,1-.52,1.65,10.82,10.82,0,0,1-.46,1.07H116.36q-.19,3.78,1.79,5.49a7.38,7.38,0,0,0,5,1.7,7.18,7.18,0,0,0,2.93-.67,16.14,16.14,0,0,0,2.69-1.46l2.92,5.24a18.19,18.19,0,0,1-4.57,2.23,19.28,19.28,0,0,1-6.28.95,13.9,13.9,0,0,1-5-.89,10.72,10.72,0,0,1-3.9-2.56,11.9,11.9,0,0,1-2.53-4.06A15,15,0,0,1,108.42,127.45Zm8.61-5.68h11a7.7,7.7,0,0,0,.31-2.25,5.6,5.6,0,0,0-.88-3.15,3.6,3.6,0,0,0-3.21-1.31,6.41,6.41,0,0,0-4.14,1.68A10.27,10.27,0,0,0,117,121.77Z"></path><path class="cls-1" d="M99,140.38c-3,0-5.24-.76-6.59-2.26a8.3,8.3,0,0,1-2-5.73,12.36,12.36,0,0,1,.15-1.93c.11-.63.22-1.27.34-1.92l2.62-12.62h-4l1.22-6.5h4.11l1.63-8h8.28l-1.52,7.93h6.89l-1.28,6.53h-7.07l-2.63,13a4.89,4.89,0,0,0-.12,1v1q0,2.93,3.11,2.93a4.45,4.45,0,0,0,1.28-.18,8.4,8.4,0,0,0,1.22-.49l1.47,5.85a22.52,22.52,0,0,1-3,.92A17.77,17.77,0,0,1,99,140.38Z"></path><path class="cls-1" d="M177.67,127.45a19,19,0,0,1,1.5-7.66,19.29,19.29,0,0,1,3.9-5.92,18.28,18.28,0,0,1,5.4-3.84,14.39,14.39,0,0,1,6-1.37,10.74,10.74,0,0,1,4.57.88,8.2,8.2,0,0,1,3.08,2.44,10,10,0,0,1,1.71,3.6,18.22,18.22,0,0,1,.52,4.42,12,12,0,0,1-.19,2.17q-.18,1.06-.42,2a17.25,17.25,0,0,1-.52,1.65c-.18.47-.34.82-.46,1.07H185.6q-.18,3.78,1.8,5.49a7.38,7.38,0,0,0,5,1.7,7.22,7.22,0,0,0,2.93-.67A15.64,15.64,0,0,0,198,132l2.93,5.24a18.19,18.19,0,0,1-4.57,2.23,19.3,19.3,0,0,1-6.29.95,13.84,13.84,0,0,1-5-.89,10.72,10.72,0,0,1-3.9-2.56,11.9,11.9,0,0,1-2.53-4.06A15,15,0,0,1,177.67,127.45Zm8.6-5.68h11a8,8,0,0,0,.31-2.25,5.53,5.53,0,0,0-.89-3.15,3.6,3.6,0,0,0-3.2-1.31,6.42,6.42,0,0,0-4.15,1.68A10.35,10.35,0,0,0,186.27,121.77Z"></path><path class="cls-1" d="M218.23,140.38a12.94,12.94,0,0,1-4.66-.83,10.32,10.32,0,0,1-3.76-2.44,11.71,11.71,0,0,1-2.5-3.93,14.24,14.24,0,0,1-.91-5.25,20.27,20.27,0,0,1,1.37-7.41,20,20,0,0,1,3.78-6.16,17.78,17.78,0,0,1,5.68-4.18,16.35,16.35,0,0,1,7-1.52,9.83,9.83,0,0,1,4.91,1.16,11.21,11.21,0,0,1,3.2,2.56l-4.63,4.94a7.27,7.27,0,0,0-1.83-1.46,4.61,4.61,0,0,0-2.2-.49,6.42,6.42,0,0,0-3.42,1,9.42,9.42,0,0,0-2.77,2.69,14,14,0,0,0-1.86,3.93,16.46,16.46,0,0,0-.67,4.79,6.67,6.67,0,0,0,1.28,4.33,4.63,4.63,0,0,0,3.84,1.59,5.75,5.75,0,0,0,2.72-.61,17.14,17.14,0,0,0,2.1-1.35l3.48,5.13a23.83,23.83,0,0,1-4.12,2.41A14.2,14.2,0,0,1,218.23,140.38Z"></path><path class="cls-1" d="M159,116.7l.16-.78,1.3-6.5.1-.47-.51-.14a10.23,10.23,0,0,0-1.92-.15,8.28,8.28,0,0,0-5.07,1.86,17.4,17.4,0,0,0-4.21,4.73h-.24l.37-5.86h-6.77l-6,30.25h8.36l3.41-17.5a15,15,0,0,1,3.66-4.7,6.33,6.33,0,0,1,3.9-1.46A8,8,0,0,1,159,116.7Z"></path><ellipse class="cls-2" cx="68.52" cy="45.1" rx="6.83" ry="8.17" transform="translate(18.88 110.41) rotate(-86.11)"></ellipse><path class="cls-2" d="M61.76,54.53a7,7,0,0,1-.63-.38L60.87,54A113.11,113.11,0,0,1,46.34,69a25.61,25.61,0,0,1-8.22,4.9C32,76,15.87,78.58,14.41,76.45,13.08,74.52,16.25,67.66,19.8,64a30.35,30.35,0,0,1,15.66-9.11c7.25-1.91,15.92-3.71,21.9-4.68a11.37,11.37,0,0,1-.94-2.08,211.92,211.92,0,0,0-22.88,2.26C22.53,52,15,55.09,9,61.47,2.48,68.39-1.92,82.24,1.42,85.88s25.07,2.19,37.06-2.6C43,81.5,47.39,76.75,53.24,68.79c3-4.14,7.66-10.56,9.29-13.85Z"></path><path class="cls-2" d="M83.77,10.39C82.4,6.05,76.5.2,71.82.6c-5.46.46-11.9,6.89-13.25,9.85s-.57,5.71,0,8c.87,3.83,3.28,9.46,6.61,15.71a13,13,0,0,1,1.9-.33,99.09,99.09,0,0,1-3.38-12.13c-.46-2.3-.71-4.61.07-5.9,1.31-2.18,6.06-5.48,8-5.54s4.59,2.29,5.59,4.28c.84,1.69.6,3.68-.38,6.62C75.7,24.89,74,28.3,71.22,34.12a11.69,11.69,0,0,1,1.86.54C76.2,30.28,80.63,23.51,82.42,19,83.55,16.13,84.65,13.18,83.77,10.39Z"></path><path class="cls-2" d="M113.81,59.63c-4.24-7.31-7.15-7.71-11.82-9.15-5.1-1.58-13-2.62-21-3.22a11.42,11.42,0,0,1-.53,1.84c7,1.52,13,2.7,17.07,4.34,3.6,1.45,5.23,2.51,7.23,5.56,1.75,2.66,4.3,8.29,3.75,9.84-.36,1-3.15.92-6.81.68a18.83,18.83,0,0,1-9.78-3c-5.79-4-9.82-8.59-14.27-13.4a9.54,9.54,0,0,1-1.56,1.18c3.17,5.06,5,8.09,9.54,14.24,2.62,3.51,4.65,5.38,9.09,7.11,6.09,2.37,20.71,3.2,23,0C119.91,72.65,116.71,64.65,113.81,59.63Z"></path></svg> 